<?xml version="1.0" standalone="no"?>
<!DOCTYPE svg PUBLIC "-//W3C//DTD SVG 20010904//EN"
 "http://www.w3.org/TR/2001/REC-SVG-20010904/DTD/svg10.dtd">
<svg version="1.0" xmlns="http://www.w3.org/2000/svg"
 width="512.000000pt" height="512.000000pt" viewBox="0 0 512.000000 512.000000"
 preserveAspectRatio="xMidYMid meet">

<g transform="translate(0.000000,512.000000) scale(0.100000,-0.100000)"
fill="#000000" stroke="none">
<path d="M2495 4895 c-22 -8 -42 -15 -45 -15 -3 0 -497 -492 -1098 -1092 -674
-674 -1101 -1108 -1114 -1133 -48 -91 -17 -208 70 -270 l44 -30 249 -3 249 -3
0 -965 c0 -706 3 -978 12 -1012 16 -64 86 -134 150 -150 35 -9 432 -12 1551
-12 1694 0 1574 -6 1645 75 23 27 44 63 51 90 8 31 11 331 11 1009 l0 965 249
3 249 3 44 30 c87 62 118 179 70 270 -26 49 -2182 2206 -2229 2229 -48 24
-112 28 -158 11z m872 -1307 c442 -442 803 -806 803 -810 0 -5 -38 -8 -85 -8
-95 0 -139 -16 -187 -67 -61 -64 -58 -10 -58 -1083 l0 -980 -215 0 -215 0 -2
678 -3 678 -25 37 c-14 21 -43 50 -64 65 l-39 27 -718 0 -717 0 -43 -30 c-23
-16 -53 -50 -66 -74 l-23 -44 0 -669 0 -668 -215 0 -215 0 0 980 c0 1073 3
1019 -58 1083 -48 51 -92 67 -187 67 -47 0 -85 3 -85 7 0 9 1602 1613 1610
1613 3 0 366 -361 807 -802z m-379 -2415 l2 -533 -430 0 -430 0 0 528 c0 291
3 532 7 535 3 4 196 6 427 5 l421 -3 3 -532z"/>
</g>
</svg>
